<svg width="309" height="74" viewBox="0 0 309 74" fill="none" xmlns="http://www.w3.org/2000/svg">
<path d="M66.5859 40.5547C66.5859 44.6172 65.7188 47.7891 63.9844 50.0703C62.25 52.3359 59.8281 53.4688 56.7188 53.4688C53.9688 53.4688 51.7734 52.4141 50.1328 50.3047L49.8281 53H43.7344V17H50.5078V29.9141C52.0703 28.0859 54.125 27.1719 56.6719 27.1719C59.7656 27.1719 62.1875 28.3125 63.9375 30.5938C65.7031 32.8594 66.5859 36.0547 66.5859 40.1797V40.5547ZM59.8125 40.0625C59.8125 37.5 59.4062 35.6328 58.5938 34.4609C57.7812 33.2734 56.5703 32.6797 54.9609 32.6797C52.8047 32.6797 51.3203 33.5625 50.5078 35.3281V45.3359C51.3359 47.1172 52.8359 48.0078 55.0078 48.0078C57.1953 48.0078 58.6328 46.9297 59.3203 44.7734C59.6484 43.7422 59.8125 42.1719 59.8125 40.0625ZM78.6797 25.2031L74.6016 35.9141H69.2109L76.2188 18.875H81.1406L88.1484 35.9141H82.7812L78.6797 25.2031ZM106.477 53C106.164 52.3906 105.938 51.6328 105.797 50.7266C104.156 52.5547 102.023 53.4688 99.3984 53.4688C96.9141 53.4688 94.8516 52.75 93.2109 51.3125C91.5859 49.875 90.7734 48.0625 90.7734 45.875C90.7734 43.1875 91.7656 41.125 93.75 39.6875C95.75 38.25 98.6328 37.5234 102.398 37.5078H105.516V36.0547C105.516 34.8828 105.211 33.9453 104.602 33.2422C104.008 32.5391 103.062 32.1875 101.766 32.1875C100.625 32.1875 99.7266 32.4609 99.0703 33.0078C98.4297 33.5547 98.1094 34.3047 98.1094 35.2578H91.3359C91.3359 33.7891 91.7891 32.4297 92.6953 31.1797C93.6016 29.9297 94.8828 28.9531 96.5391 28.25C98.1953 27.5312 100.055 27.1719 102.117 27.1719C105.242 27.1719 107.719 27.9609 109.547 29.5391C111.391 31.1016 112.312 33.3047 112.312 36.1484V47.1406C112.328 49.5469 112.664 51.3672 113.32 52.6016V53H106.477ZM100.875 48.2891C101.875 48.2891 102.797 48.0703 103.641 47.6328C104.484 47.1797 105.109 46.5781 105.516 45.8281V41.4688H102.984C99.5938 41.4688 97.7891 42.6406 97.5703 44.9844L97.5469 45.3828C97.5469 46.2266 97.8438 46.9219 98.4375 47.4688C99.0312 48.0156 99.8438 48.2891 100.875 48.2891Z" fill="white"/>
<path d="M117.867 49.6719C117.867 48.5938 118.227 47.7188 118.945 47.0469C119.68 46.375 120.594 46.0391 121.688 46.0391C122.797 46.0391 123.711 46.375 124.43 47.0469C125.164 47.7188 125.531 48.5938 125.531 49.6719C125.531 50.7344 125.172 51.6016 124.453 52.2734C123.734 52.9297 122.812 53.2578 121.688 53.2578C120.578 53.2578 119.664 52.9297 118.945 52.2734C118.227 51.6016 117.867 50.7344 117.867 49.6719ZM138.961 40.9766V53H131.93V18.875H145.242C147.805 18.875 150.055 19.3438 151.992 20.2812C153.945 21.2188 155.445 22.5547 156.492 24.2891C157.539 26.0078 158.062 27.9688 158.062 30.1719C158.062 33.5156 156.914 36.1562 154.617 38.0938C152.336 40.0156 149.172 40.9766 145.125 40.9766H138.961ZM138.961 35.2812H145.242C147.102 35.2812 148.516 34.8438 149.484 33.9688C150.469 33.0938 150.961 31.8438 150.961 30.2188C150.961 28.5469 150.469 27.1953 149.484 26.1641C148.5 25.1328 147.141 24.6016 145.406 24.5703H138.961V35.2812ZM175.547 40.5078H169.945V53H162.914V18.875H175.594C179.625 18.875 182.734 19.7734 184.922 21.5703C187.109 23.3672 188.203 25.9062 188.203 29.1875C188.203 31.5156 187.695 33.4609 186.68 35.0234C185.68 36.5703 184.156 37.8047 182.109 38.7266L189.492 52.6719V53H181.945L175.547 40.5078ZM169.945 34.8125H175.617C177.383 34.8125 178.75 34.3672 179.719 33.4766C180.688 32.5703 181.172 31.3281 181.172 29.75C181.172 28.1406 180.711 26.875 179.789 25.9531C178.883 25.0312 177.484 24.5703 175.594 24.5703H169.945V34.8125ZM259.078 44.0469C259.078 42.7188 258.609 41.7031 257.672 41C256.734 40.2812 255.047 39.5312 252.609 38.75C250.172 37.9531 248.242 37.1719 246.82 36.4062C242.945 34.3125 241.008 31.4922 241.008 27.9453C241.008 26.1016 241.523 24.4609 242.555 23.0234C243.602 21.5703 245.094 20.4375 247.031 19.625C248.984 18.8125 251.172 18.4062 253.594 18.4062C256.031 18.4062 258.203 18.8516 260.109 19.7422C262.016 20.6172 263.492 21.8594 264.539 23.4688C265.602 25.0781 266.133 26.9062 266.133 28.9531H259.102C259.102 27.3906 258.609 26.1797 257.625 25.3203C256.641 24.4453 255.258 24.0078 253.477 24.0078C251.758 24.0078 250.422 24.375 249.469 25.1094C248.516 25.8281 248.039 26.7812 248.039 27.9688C248.039 29.0781 248.594 30.0078 249.703 30.7578C250.828 31.5078 252.477 32.2109 254.648 32.8672C258.648 34.0703 261.562 35.5625 263.391 37.3438C265.219 39.125 266.133 41.3438 266.133 44C266.133 46.9531 265.016 49.2734 262.781 50.9609C260.547 52.6328 257.539 53.4688 253.758 53.4688C251.133 53.4688 248.742 52.9922 246.586 52.0391C244.43 51.0703 242.781 49.75 241.641 48.0781C240.516 46.4062 239.953 44.4688 239.953 42.2656H247.008C247.008 46.0312 249.258 47.9141 253.758 47.9141C255.43 47.9141 256.734 47.5781 257.672 46.9062C258.609 46.2188 259.078 45.2656 259.078 44.0469Z" fill="#F9BF2C"/>
<line x1="42" y1="71.5" x2="123" y2="71.5" stroke="#F9BF2C" stroke-width="3"/>
<path fill-rule="evenodd" clip-rule="evenodd" d="M215 23C208.034 23 202.88 26.154 199.38 29.524C196.928 31.9044 194.899 34.6839 193.378 37.744C193.188 38.135 193.089 38.5642 193.089 38.999C193.089 39.4338 193.188 39.863 193.378 40.254C194.898 43.3146 196.927 46.0948 199.378 48.476C202.88 51.846 208.036 55 215 55C221.966 55 227.12 51.846 230.62 48.476C233.072 46.0957 235.101 43.3161 236.622 40.256C236.812 39.865 236.911 39.4358 236.911 39.001C236.911 38.5662 236.812 38.137 236.622 37.746C235.102 34.6853 233.073 31.9051 230.622 29.524C227.12 26.154 221.966 23 215 23ZM215 31C212.878 31 210.843 31.8429 209.343 33.3431C207.843 34.8434 207 36.8783 207 39C207 41.1217 207.843 43.1566 209.343 44.6569C210.843 46.1571 212.878 47 215 47C217.122 47 219.156 46.1571 220.657 44.6569C222.157 43.1566 223 41.1217 223 39C223 36.8783 222.157 34.8434 220.657 33.3431C219.156 31.8429 217.122 31 215 31ZM215 43C216.061 43 217.078 42.5786 217.828 41.8284C218.578 41.0783 219 40.0609 219 39C219 37.9391 218.578 36.9217 217.828 36.1716C217.078 35.4214 216.061 35 215 35C213.939 35 212.922 35.4214 212.171 36.1716C211.421 36.9217 211 37.9391 211 39C211 40.0609 211.421 41.0783 212.171 41.8284C212.922 42.5786 213.939 43 215 43Z" fill="#F9BF2C"/>
</svg>
